<mxfile host="app.diagrams.net" modified="2022-04-05T16:15:45.268Z" agent="5.0 (Windows NT 6.3; Win64; x64) AppleWebKit/537.36 (KHTML, like Gecko) Chrome/99.0.4844.84 Safari/537.36" etag="rqaOL4f5IqaH4jrk19I8" version="17.4.0" type="github">
  <diagram name="Page-1" id="2c0d36ab-eaac-3732-788b-9136903baeff">
    <mxGraphModel dx="920" dy="793" grid="1" gridSize="10" guides="1" tooltips="1" connect="1" arrows="1" fold="1" page="1" pageScale="1.5" pageWidth="1169" pageHeight="827" background="none" math="0" shadow="0">
      <root>
        <mxCell id="0" />
        <mxCell id="1" parent="0" />
        <mxCell id="123" value="" style="fillColor=#AE4132;strokeColor=none;opacity=30;" parent="1" vertex="1">
          <mxGeometry x="747" y="175.50000000000003" width="210" height="99.99999999999994" as="geometry" />
        </mxCell>
        <mxCell id="122" value="" style="fillColor=#10739E;strokeColor=none;opacity=30;" parent="1" vertex="1">
          <mxGeometry x="97" y="325.5" width="1470" height="99.99999999999994" as="geometry" />
        </mxCell>
        <mxCell id="121" value="" style="fillColor=#F2931E;strokeColor=none;opacity=30;" parent="1" vertex="1">
          <mxGeometry x="1812" y="680" width="150" height="270" as="geometry" />
        </mxCell>
        <mxCell id="120" value="" style="fillColor=#F2931E;strokeColor=none;opacity=30;" parent="1" vertex="1">
          <mxGeometry x="1001.5" y="445.5" width="203" height="244.5" as="geometry" />
        </mxCell>
        <mxCell id="119" value="" style="fillColor=#F2931E;strokeColor=none;opacity=30;" parent="1" vertex="1">
          <mxGeometry x="818" y="705.5" width="150" height="270" as="geometry" />
        </mxCell>
        <mxCell id="118" value="" style="fillColor=#F2931E;strokeColor=none;opacity=30;" parent="1" vertex="1">
          <mxGeometry x="210" y="445.5" width="140" height="424.5" as="geometry" />
        </mxCell>
        <mxCell id="116" value="" style="fillColor=#10739E;strokeColor=none;opacity=30;" parent="1" vertex="1">
          <mxGeometry x="1639" y="985.5000000000002" width="150" height="80" as="geometry" />
        </mxCell>
        <mxCell id="114" value="" style="fillColor=#10739E;strokeColor=none;opacity=30;" parent="1" vertex="1">
          <mxGeometry x="817.9999999999999" y="985.5000000000001" width="150" height="80" as="geometry" />
        </mxCell>
        <mxCell id="113" value="" style="fillColor=#10739E;strokeColor=none;opacity=30;" parent="1" vertex="1">
          <mxGeometry x="480" y="715.5" width="318" height="80" as="geometry" />
        </mxCell>
        <mxCell id="112" value="" style="fillColor=#10739E;strokeColor=none;opacity=30;" parent="1" vertex="1">
          <mxGeometry x="9" y="655.5" width="180" height="80" as="geometry" />
        </mxCell>
        <mxCell id="111" value="" style="fillColor=#D9EAD3;strokeColor=none" parent="1" vertex="1">
          <mxGeometry x="20" y="545.5" width="160" height="80" as="geometry" />
        </mxCell>
        <mxCell id="109" value="" style="fillColor=#12AAB5;strokeColor=none;opacity=30;" parent="1" vertex="1">
          <mxGeometry x="480" y="445.5" width="488" height="80" as="geometry" />
        </mxCell>
        <mxCell id="108" value="" style="fillColor=#12AAB5;strokeColor=none;opacity=30;" parent="1" vertex="1">
          <mxGeometry x="10" y="445.5" width="180" height="80" as="geometry" />
        </mxCell>
        <mxCell id="2" value="Bases de datos" style="rounded=1;fillColor=#23445D;gradientColor=none;strokeColor=none;fontColor=#FFFFFF;fontStyle=1;fontFamily=Tahoma;fontSize=14" parent="1" vertex="1">
          <mxGeometry x="757" y="185.5" width="190" height="80" as="geometry" />
        </mxCell>
        <mxCell id="4" value="Su funcion es:" style="rounded=1;fillColor=#23445D;gradientColor=none;strokeColor=none;fontColor=#FFFFFF;fontStyle=1;fontFamily=Tahoma;fontSize=14" parent="1" vertex="1">
          <mxGeometry x="1431.9999999999998" y="335.5" width="190" height="80" as="geometry" />
        </mxCell>
        <mxCell id="9" value="" style="edgeStyle=elbowEdgeStyle;elbow=vertical;strokeWidth=2;rounded=0" parent="1" source="2" target="4" edge="1">
          <mxGeometry x="337" y="215.5" width="100" height="100" as="geometry">
            <mxPoint x="337" y="315.5" as="sourcePoint" />
            <mxPoint x="437" y="215.5" as="targetPoint" />
          </mxGeometry>
        </mxCell>
        <mxCell id="10" value="Significado" style="rounded=1;fillColor=#23445D;gradientColor=none;strokeColor=none;fontColor=#FFFFFF;fontStyle=1;fontFamily=Tahoma;fontSize=14" parent="1" vertex="1">
          <mxGeometry x="1008" y="335.5" width="190" height="80" as="geometry" />
        </mxCell>
        <mxCell id="12" value="Research and &#xa;Development" style="rounded=1;fillColor=#23445D;gradientColor=none;strokeColor=none;fontColor=#FFFFFF;fontStyle=1;fontFamily=Tahoma;fontSize=14" parent="1" vertex="1">
          <mxGeometry x="622.9999999999999" y="335.5" width="190" height="80" as="geometry" />
        </mxCell>
        <mxCell id="13" value=" Tipos de datos" style="rounded=1;fillColor=#23445D;gradientColor=none;strokeColor=none;fontColor=#FFFFFF;fontStyle=1;fontFamily=Tahoma;fontSize=14" parent="1" vertex="1">
          <mxGeometry x="107" y="335.5" width="190" height="80" as="geometry" />
        </mxCell>
        <mxCell id="14" value="Van de acuerdo &#xa;al tipo de información&#xa;a guardar" style="rounded=1;fillColor=#23445D;gradientColor=none;strokeColor=none;fontColor=#FFFFFF;fontStyle=1;fontFamily=Tahoma;fontSize=13;" parent="1" vertex="1">
          <mxGeometry x="20" y="455.5" width="160" height="60" as="geometry" />
        </mxCell>
        <mxCell id="5XHMu55BE_E5vSNQYdzp-137" value="" style="edgeStyle=elbowEdgeStyle;rounded=0;orthogonalLoop=1;jettySize=auto;html=1;fontSize=13;" edge="1" parent="1" source="15" target="5XHMu55BE_E5vSNQYdzp-135">
          <mxGeometry relative="1" as="geometry" />
        </mxCell>
        <mxCell id="15" value="SGDB más comunes &#xa;del mercado" style="rounded=1;fillColor=#23445D;gradientColor=none;strokeColor=none;fontColor=#FFFFFF;fontStyle=1;fontFamily=Tahoma;fontSize=13;" parent="1" vertex="1">
          <mxGeometry x="27" y="555.5" width="145" height="60" as="geometry" />
        </mxCell>
        <mxCell id="16" value="Cadena caracteres" style="rounded=1;fillColor=#23445D;gradientColor=none;strokeColor=none;fontColor=#FFFFFF;fontStyle=1;fontFamily=Tahoma;fontSize=13;" parent="1" vertex="1">
          <mxGeometry x="220" y="455.5" width="120" height="44.5" as="geometry" />
        </mxCell>
        <mxCell id="17" value="Cadena texto" style="rounded=1;fillColor=#23445D;gradientColor=none;strokeColor=none;fontColor=#FFFFFF;fontStyle=1;fontFamily=Tahoma;fontSize=13;" parent="1" vertex="1">
          <mxGeometry x="220" y="510" width="120" height="40" as="geometry" />
        </mxCell>
        <mxCell id="18" value="Entero pequeño" style="rounded=1;fillColor=#23445D;gradientColor=none;strokeColor=none;fontColor=#FFFFFF;fontStyle=1;fontFamily=Tahoma;fontSize=13;" parent="1" vertex="1">
          <mxGeometry x="220" y="570" width="120" height="40" as="geometry" />
        </mxCell>
        <mxCell id="19" value="Entero" style="rounded=1;fillColor=#23445D;gradientColor=none;strokeColor=none;fontColor=#FFFFFF;fontStyle=1;fontFamily=Tahoma;fontSize=13;" parent="1" vertex="1">
          <mxGeometry x="220" y="630" width="120" height="30" as="geometry" />
        </mxCell>
        <mxCell id="20" value="Fecha" style="rounded=1;fillColor=#23445D;gradientColor=none;strokeColor=none;fontColor=#FFFFFF;fontStyle=1;fontFamily=Tahoma;fontSize=13;" parent="1" vertex="1">
          <mxGeometry x="220" y="680" width="120" height="30" as="geometry" />
        </mxCell>
        <mxCell id="23" value="Fecha y hora" style="rounded=1;fillColor=#23445D;gradientColor=none;strokeColor=none;fontColor=#FFFFFF;fontStyle=1;fontFamily=Tahoma;fontSize=13;" parent="1" vertex="1">
          <mxGeometry x="220" y="731.5" width="120" height="34.5" as="geometry" />
        </mxCell>
        <mxCell id="25" value="SI" style="rounded=1;fillColor=#23445D;gradientColor=none;strokeColor=none;fontColor=#FFFFFF;fontStyle=1;fontFamily=Tahoma;fontSize=14" parent="1" vertex="1">
          <mxGeometry x="487" y="455.5" width="130" height="60" as="geometry" />
        </mxCell>
        <mxCell id="26" value="Programming" style="rounded=1;fillColor=#23445D;gradientColor=none;strokeColor=none;fontColor=#FFFFFF;fontStyle=1;fontFamily=Tahoma;fontSize=14" parent="1" vertex="1">
          <mxGeometry x="487" y="545.5" width="130" height="60" as="geometry" />
        </mxCell>
        <mxCell id="27" value="Client / Server" style="rounded=1;fillColor=#23445D;gradientColor=none;strokeColor=none;fontColor=#FFFFFF;fontStyle=1;fontFamily=Tahoma;fontSize=14" parent="1" vertex="1">
          <mxGeometry x="487" y="635.5" width="130" height="60" as="geometry" />
        </mxCell>
        <mxCell id="28" value="Data Collection" style="rounded=1;fillColor=#23445D;gradientColor=none;strokeColor=none;fontColor=#FFFFFF;fontStyle=1;fontFamily=Tahoma;fontSize=14" parent="1" vertex="1">
          <mxGeometry x="487" y="725.5" width="130" height="60" as="geometry" />
        </mxCell>
        <mxCell id="29" value="SSI" style="rounded=1;fillColor=#23445D;gradientColor=none;strokeColor=none;fontColor=#FFFFFF;fontStyle=1;fontFamily=Tahoma;fontSize=14" parent="1" vertex="1">
          <mxGeometry x="653" y="455.5" width="130" height="60" as="geometry" />
        </mxCell>
        <mxCell id="30" value="Programming" style="rounded=1;fillColor=#23445D;gradientColor=none;strokeColor=none;fontColor=#FFFFFF;fontStyle=1;fontFamily=Tahoma;fontSize=14" parent="1" vertex="1">
          <mxGeometry x="653" y="545.5" width="130" height="60" as="geometry" />
        </mxCell>
        <mxCell id="31" value="Client / Server" style="rounded=1;fillColor=#23445D;gradientColor=none;strokeColor=none;fontColor=#FFFFFF;fontStyle=1;fontFamily=Tahoma;fontSize=14" parent="1" vertex="1">
          <mxGeometry x="653" y="635.5" width="130" height="60" as="geometry" />
        </mxCell>
        <mxCell id="32" value="Data Collection" style="rounded=1;fillColor=#23445D;gradientColor=none;strokeColor=none;fontColor=#FFFFFF;fontStyle=1;fontFamily=Tahoma;fontSize=14" parent="1" vertex="1">
          <mxGeometry x="653" y="725.5" width="130" height="60" as="geometry" />
        </mxCell>
        <mxCell id="33" value="XMI" style="rounded=1;fillColor=#23445D;gradientColor=none;strokeColor=none;fontColor=#FFFFFF;fontStyle=1;fontFamily=Tahoma;fontSize=14" parent="1" vertex="1">
          <mxGeometry x="828" y="455.5" width="130" height="60" as="geometry" />
        </mxCell>
        <mxCell id="34" value="Programming" style="rounded=1;fillColor=#23445D;gradientColor=none;strokeColor=none;fontColor=#FFFFFF;fontStyle=1;fontFamily=Tahoma;fontSize=14" parent="1" vertex="1">
          <mxGeometry x="828" y="545.5" width="130" height="60" as="geometry" />
        </mxCell>
        <mxCell id="35" value="HTTP" style="rounded=1;fillColor=#23445D;gradientColor=none;strokeColor=none;fontColor=#FFFFFF;fontStyle=1;fontFamily=Tahoma;fontSize=14" parent="1" vertex="1">
          <mxGeometry x="828" y="635.5" width="130" height="60" as="geometry" />
        </mxCell>
        <mxCell id="36" value="HTS" style="rounded=1;fillColor=#23445D;gradientColor=none;strokeColor=none;fontColor=#FFFFFF;fontStyle=1;fontFamily=Tahoma;fontSize=14" parent="1" vertex="1">
          <mxGeometry x="828" y="725.5" width="130" height="60" as="geometry" />
        </mxCell>
        <mxCell id="37" value="CVS" style="rounded=1;fillColor=#23445D;gradientColor=none;strokeColor=none;fontColor=#FFFFFF;fontStyle=1;fontFamily=Tahoma;fontSize=14" parent="1" vertex="1">
          <mxGeometry x="828" y="815.5" width="130" height="60" as="geometry" />
        </mxCell>
        <mxCell id="38" value="Client / Server" style="rounded=1;fillColor=#23445D;gradientColor=none;strokeColor=none;fontColor=#FFFFFF;fontStyle=1;fontFamily=Tahoma;fontSize=14" parent="1" vertex="1">
          <mxGeometry x="828" y="905.5" width="130" height="60" as="geometry" />
        </mxCell>
        <mxCell id="39" value="Data Collection" style="rounded=1;fillColor=#23445D;gradientColor=none;strokeColor=none;fontColor=#FFFFFF;fontStyle=1;fontFamily=Tahoma;fontSize=14" parent="1" vertex="1">
          <mxGeometry x="828" y="995.5" width="130" height="60" as="geometry" />
        </mxCell>
        <mxCell id="41" value="Se referirá a un conjunto &#xa;de información que &#xa;puede ser almacenada &#xa;en grandes &#xa;cantidades de forma &#xa;organizada y es &#xa;gestionada a través &#xa;de un Sistema &#xa;de Gestión de Bases &#xa;de Datos (SGBD)" style="rounded=1;fillColor=#23445D;gradientColor=none;strokeColor=none;fontColor=#FFFFFF;fontStyle=1;fontFamily=Tahoma;fontSize=14" parent="1" vertex="1">
          <mxGeometry x="1011.5" y="455.5" width="183" height="214.5" as="geometry" />
        </mxCell>
        <mxCell id="42" value="Know Issues" style="rounded=1;fillColor=#23445D;gradientColor=none;strokeColor=none;fontColor=#FFFFFF;fontStyle=1;fontFamily=Tahoma;fontSize=14" parent="1" vertex="1">
          <mxGeometry x="1038" y="750" width="130" height="60" as="geometry" />
        </mxCell>
        <mxCell id="43" value="Knowhow" style="rounded=1;fillColor=#23445D;gradientColor=none;strokeColor=none;fontColor=#FFFFFF;fontStyle=1;fontFamily=Tahoma;fontSize=14" parent="1" vertex="1">
          <mxGeometry x="1038" y="825.5" width="130" height="60" as="geometry" />
        </mxCell>
        <mxCell id="5XHMu55BE_E5vSNQYdzp-123" value="" style="edgeStyle=orthogonalEdgeStyle;rounded=0;orthogonalLoop=1;jettySize=auto;html=1;fontSize=13;" edge="1" parent="1">
          <mxGeometry relative="1" as="geometry">
            <mxPoint x="1432.9999999999995" y="515.5" as="sourcePoint" />
            <mxPoint x="1432.9999999999995" y="545.5" as="targetPoint" />
          </mxGeometry>
        </mxCell>
        <mxCell id="44" value="Para organizar &#xa;y definir la información de &#xa;forma sistemática" style="rounded=1;fillColor=#23445D;gradientColor=none;strokeColor=none;fontColor=#FFFFFF;fontStyle=1;fontFamily=Tahoma;fontSize=13;" parent="1" vertex="1">
          <mxGeometry x="1286" y="455.50000000000006" width="130" height="60" as="geometry" />
        </mxCell>
        <mxCell id="5XHMu55BE_E5vSNQYdzp-124" value="" style="edgeStyle=orthogonalEdgeStyle;rounded=0;orthogonalLoop=1;jettySize=auto;html=1;fontSize=13;" edge="1" parent="1">
          <mxGeometry relative="1" as="geometry">
            <mxPoint x="1432.9999999999995" y="605.5" as="sourcePoint" />
            <mxPoint x="1432.9999999999995" y="635.5" as="targetPoint" />
          </mxGeometry>
        </mxCell>
        <mxCell id="45" value="Permite almacenar&#xa;Metadatos" style="rounded=1;fillColor=#23445D;gradientColor=none;strokeColor=none;fontColor=#FFFFFF;fontStyle=1;fontFamily=Tahoma;fontSize=13;" parent="1" vertex="1">
          <mxGeometry x="1286" y="545.5" width="130" height="60" as="geometry" />
        </mxCell>
        <mxCell id="5XHMu55BE_E5vSNQYdzp-125" value="" style="edgeStyle=orthogonalEdgeStyle;rounded=0;orthogonalLoop=1;jettySize=auto;html=1;fontSize=13;" edge="1" parent="1">
          <mxGeometry relative="1" as="geometry">
            <mxPoint x="1432.9999999999995" y="695.5" as="sourcePoint" />
            <mxPoint x="1432.9999999999995" y="725.5" as="targetPoint" />
          </mxGeometry>
        </mxCell>
        <mxCell id="46" value="La informacion &#xa;se guarda de forma&#xa;conceptual" style="rounded=1;fillColor=#23445D;gradientColor=none;strokeColor=none;fontColor=#FFFFFF;fontStyle=1;fontFamily=Tahoma;fontSize=13;" parent="1" vertex="1">
          <mxGeometry x="1286" y="635.5" width="130" height="60" as="geometry" />
        </mxCell>
        <mxCell id="47" value="diccionario de datos&#xa; o catálogo de datos" style="rounded=1;fillColor=#23445D;gradientColor=none;strokeColor=none;fontColor=#FFFFFF;fontStyle=1;fontFamily=Tahoma;fontSize=13;" parent="1" vertex="1">
          <mxGeometry x="1286" y="725.5000000000001" width="130" height="60" as="geometry" />
        </mxCell>
        <mxCell id="48" value="SSI" style="rounded=1;fillColor=#23445D;gradientColor=none;strokeColor=none;fontColor=#FFFFFF;fontStyle=1;fontFamily=Tahoma;fontSize=14" parent="1" vertex="1">
          <mxGeometry x="1462" y="645.5" width="130" height="60" as="geometry" />
        </mxCell>
        <mxCell id="49" value="Programming" style="rounded=1;fillColor=#23445D;gradientColor=none;strokeColor=none;fontColor=#FFFFFF;fontStyle=1;fontFamily=Tahoma;fontSize=14" parent="1" vertex="1">
          <mxGeometry x="1462" y="735.5" width="130" height="60" as="geometry" />
        </mxCell>
        <mxCell id="50" value="Client / Server" style="rounded=1;fillColor=#23445D;gradientColor=none;strokeColor=none;fontColor=#FFFFFF;fontStyle=1;fontFamily=Tahoma;fontSize=14" parent="1" vertex="1">
          <mxGeometry x="1462" y="825.5" width="130" height="60" as="geometry" />
        </mxCell>
        <mxCell id="51" value="Data Collection" style="rounded=1;fillColor=#23445D;gradientColor=none;strokeColor=none;fontColor=#FFFFFF;fontStyle=1;fontFamily=Tahoma;fontSize=14" parent="1" vertex="1">
          <mxGeometry x="1462" y="915.5000000000001" width="130" height="60" as="geometry" />
        </mxCell>
        <mxCell id="52" value="XMI" style="rounded=1;fillColor=#23445D;gradientColor=none;strokeColor=none;fontColor=#FFFFFF;fontStyle=1;fontFamily=Tahoma;fontSize=14" parent="1" vertex="1">
          <mxGeometry x="1649" y="455.50000000000006" width="130" height="60" as="geometry" />
        </mxCell>
        <mxCell id="53" value="Programming" style="rounded=1;fillColor=#23445D;gradientColor=none;strokeColor=none;fontColor=#FFFFFF;fontStyle=1;fontFamily=Tahoma;fontSize=14" parent="1" vertex="1">
          <mxGeometry x="1649" y="545.5" width="130" height="60" as="geometry" />
        </mxCell>
        <mxCell id="54" value="HTTP" style="rounded=1;fillColor=#23445D;gradientColor=none;strokeColor=none;fontColor=#FFFFFF;fontStyle=1;fontFamily=Tahoma;fontSize=14" parent="1" vertex="1">
          <mxGeometry x="1649" y="635.5" width="130" height="60" as="geometry" />
        </mxCell>
        <mxCell id="55" value="HTS" style="rounded=1;fillColor=#23445D;gradientColor=none;strokeColor=none;fontColor=#FFFFFF;fontStyle=1;fontFamily=Tahoma;fontSize=14" parent="1" vertex="1">
          <mxGeometry x="1649" y="725.5000000000001" width="130" height="60" as="geometry" />
        </mxCell>
        <mxCell id="56" value="CVS" style="rounded=1;fillColor=#23445D;gradientColor=none;strokeColor=none;fontColor=#FFFFFF;fontStyle=1;fontFamily=Tahoma;fontSize=14" parent="1" vertex="1">
          <mxGeometry x="1649" y="815.5000000000001" width="130" height="60" as="geometry" />
        </mxCell>
        <mxCell id="57" value="Client / Server" style="rounded=1;fillColor=#23445D;gradientColor=none;strokeColor=none;fontColor=#FFFFFF;fontStyle=1;fontFamily=Tahoma;fontSize=14" parent="1" vertex="1">
          <mxGeometry x="1649" y="905.5000000000001" width="130" height="60" as="geometry" />
        </mxCell>
        <mxCell id="58" value="Data Collection" style="rounded=1;fillColor=#23445D;gradientColor=none;strokeColor=none;fontColor=#FFFFFF;fontStyle=1;fontFamily=Tahoma;fontSize=14" parent="1" vertex="1">
          <mxGeometry x="1649" y="995.5000000000001" width="130" height="60" as="geometry" />
        </mxCell>
        <mxCell id="59" value="" style="edgeStyle=elbowEdgeStyle;elbow=vertical;strokeWidth=2;rounded=0" parent="1" source="2" target="12" edge="1">
          <mxGeometry x="347" y="225.5" width="100" height="100" as="geometry">
            <mxPoint x="861.9999999999999" y="275.5" as="sourcePoint" />
            <mxPoint x="1466.9999999999998" y="345.5" as="targetPoint" />
          </mxGeometry>
        </mxCell>
        <mxCell id="61" value="" style="edgeStyle=elbowEdgeStyle;elbow=vertical;strokeWidth=2;rounded=0" parent="1" source="2" target="13" edge="1">
          <mxGeometry x="-23" y="135.5" width="100" height="100" as="geometry">
            <mxPoint x="-23" y="235.5" as="sourcePoint" />
            <mxPoint x="77" y="135.5" as="targetPoint" />
          </mxGeometry>
        </mxCell>
        <mxCell id="62" value="" style="edgeStyle=elbowEdgeStyle;elbow=vertical;strokeWidth=2;rounded=0" parent="1" edge="1">
          <mxGeometry x="-28" y="135.5" width="100" height="100" as="geometry">
            <mxPoint x="196.9999999999999" y="415.5" as="sourcePoint" />
            <mxPoint x="95" y="455.5" as="targetPoint" />
          </mxGeometry>
        </mxCell>
        <mxCell id="64" value="" style="edgeStyle=elbowEdgeStyle;elbow=horizontal;strokeWidth=2;rounded=0" parent="1" edge="1">
          <mxGeometry x="-28" y="135.5" width="100" height="100" as="geometry">
            <mxPoint x="197" y="415.5" as="sourcePoint" />
            <mxPoint x="215" y="477.75" as="targetPoint" />
            <Array as="points">
              <mxPoint x="197" y="435.5" />
            </Array>
          </mxGeometry>
        </mxCell>
        <mxCell id="65" value="" style="edgeStyle=elbowEdgeStyle;elbow=horizontal;strokeWidth=2;rounded=0" parent="1" edge="1">
          <mxGeometry x="-28" y="135.5" width="100" height="100" as="geometry">
            <mxPoint x="197" y="415.5" as="sourcePoint" />
            <mxPoint x="215" y="530" as="targetPoint" />
            <Array as="points">
              <mxPoint x="197" y="475.5" />
            </Array>
          </mxGeometry>
        </mxCell>
        <mxCell id="66" value="" style="edgeStyle=elbowEdgeStyle;elbow=horizontal;strokeWidth=2;rounded=0" parent="1" edge="1">
          <mxGeometry x="-28" y="135.5" width="100" height="100" as="geometry">
            <mxPoint x="197" y="415.5" as="sourcePoint" />
            <mxPoint x="215" y="590" as="targetPoint" />
            <Array as="points">
              <mxPoint x="197" y="525.5" />
            </Array>
          </mxGeometry>
        </mxCell>
        <mxCell id="67" value="" style="edgeStyle=elbowEdgeStyle;elbow=horizontal;strokeWidth=2;rounded=0" parent="1" edge="1">
          <mxGeometry x="-28" y="135.5" width="100" height="100" as="geometry">
            <mxPoint x="197" y="415.5" as="sourcePoint" />
            <mxPoint x="215" y="645" as="targetPoint" />
            <Array as="points">
              <mxPoint x="197" y="575.5" />
            </Array>
          </mxGeometry>
        </mxCell>
        <mxCell id="68" value="" style="edgeStyle=elbowEdgeStyle;elbow=horizontal;strokeWidth=2;rounded=0" parent="1" edge="1">
          <mxGeometry x="-28" y="135.5" width="100" height="100" as="geometry">
            <mxPoint x="197" y="415.5" as="sourcePoint" />
            <mxPoint x="215" y="700" as="targetPoint" />
            <Array as="points">
              <mxPoint x="197" y="615.5" />
            </Array>
          </mxGeometry>
        </mxCell>
        <mxCell id="69" value="" style="edgeStyle=elbowEdgeStyle;elbow=horizontal;strokeWidth=2;rounded=0;entryX=0;entryY=0.25;entryDx=0;entryDy=0;" parent="1" target="5XHMu55BE_E5vSNQYdzp-126" edge="1">
          <mxGeometry x="-28" y="135.5" width="100" height="100" as="geometry">
            <mxPoint x="197" y="415.5" as="sourcePoint" />
            <mxPoint x="215" y="791.625" as="targetPoint" />
            <Array as="points">
              <mxPoint x="197" y="810" />
              <mxPoint x="215" y="850" />
              <mxPoint x="197" y="665.5" />
            </Array>
          </mxGeometry>
        </mxCell>
        <mxCell id="70" value="" style="edgeStyle=elbowEdgeStyle;elbow=horizontal;strokeWidth=2;rounded=0" parent="1" source="25" target="26" edge="1">
          <mxGeometry x="47" y="135.5" width="100" height="100" as="geometry">
            <mxPoint x="47" y="235.5" as="sourcePoint" />
            <mxPoint x="147" y="135.5" as="targetPoint" />
            <Array as="points">
              <mxPoint x="467" y="535.5" />
            </Array>
          </mxGeometry>
        </mxCell>
        <mxCell id="71" value="" style="edgeStyle=elbowEdgeStyle;elbow=horizontal;strokeWidth=2;rounded=0" parent="1" source="25" target="27" edge="1">
          <mxGeometry x="47" y="135.5" width="100" height="100" as="geometry">
            <mxPoint x="47" y="235.5" as="sourcePoint" />
            <mxPoint x="147" y="135.5" as="targetPoint" />
            <Array as="points">
              <mxPoint x="467" y="575.5" />
            </Array>
          </mxGeometry>
        </mxCell>
        <mxCell id="72" value="" style="edgeStyle=elbowEdgeStyle;elbow=horizontal;strokeWidth=2;rounded=0" parent="1" source="25" target="28" edge="1">
          <mxGeometry x="47" y="135.5" width="100" height="100" as="geometry">
            <mxPoint x="47" y="235.5" as="sourcePoint" />
            <mxPoint x="147" y="135.5" as="targetPoint" />
            <Array as="points">
              <mxPoint x="467" y="615.5" />
            </Array>
          </mxGeometry>
        </mxCell>
        <mxCell id="73" value="" style="edgeStyle=elbowEdgeStyle;elbow=horizontal;strokeWidth=2;rounded=0" parent="1" source="29" target="30" edge="1">
          <mxGeometry x="38" y="135.5" width="100" height="100" as="geometry">
            <mxPoint x="38" y="235.5" as="sourcePoint" />
            <mxPoint x="138" y="135.5" as="targetPoint" />
            <Array as="points">
              <mxPoint x="628" y="535.5" />
            </Array>
          </mxGeometry>
        </mxCell>
        <mxCell id="74" value="" style="edgeStyle=elbowEdgeStyle;elbow=horizontal;strokeWidth=2;rounded=0" parent="1" source="29" target="31" edge="1">
          <mxGeometry x="38" y="135.5" width="100" height="100" as="geometry">
            <mxPoint x="38" y="235.5" as="sourcePoint" />
            <mxPoint x="138" y="135.5" as="targetPoint" />
            <Array as="points">
              <mxPoint x="628" y="575.5" />
            </Array>
          </mxGeometry>
        </mxCell>
        <mxCell id="75" value="" style="edgeStyle=elbowEdgeStyle;elbow=horizontal;strokeWidth=2;rounded=0" parent="1" source="29" target="32" edge="1">
          <mxGeometry x="38" y="135.5" width="100" height="100" as="geometry">
            <mxPoint x="38" y="235.5" as="sourcePoint" />
            <mxPoint x="138" y="135.5" as="targetPoint" />
            <Array as="points">
              <mxPoint x="628" y="615.5" />
            </Array>
          </mxGeometry>
        </mxCell>
        <mxCell id="76" value="" style="edgeStyle=elbowEdgeStyle;elbow=horizontal;strokeWidth=2;rounded=0" parent="1" source="33" target="34" edge="1">
          <mxGeometry x="38" y="135.5" width="100" height="100" as="geometry">
            <mxPoint x="38" y="235.5" as="sourcePoint" />
            <mxPoint x="138" y="135.5" as="targetPoint" />
            <Array as="points">
              <mxPoint x="808" y="535.5" />
            </Array>
          </mxGeometry>
        </mxCell>
        <mxCell id="77" value="" style="edgeStyle=elbowEdgeStyle;elbow=horizontal;strokeWidth=2;rounded=0" parent="1" source="33" target="35" edge="1">
          <mxGeometry x="38" y="135.5" width="100" height="100" as="geometry">
            <mxPoint x="38" y="235.5" as="sourcePoint" />
            <mxPoint x="138" y="135.5" as="targetPoint" />
            <Array as="points">
              <mxPoint x="808" y="575.5" />
            </Array>
          </mxGeometry>
        </mxCell>
        <mxCell id="78" value="" style="edgeStyle=elbowEdgeStyle;elbow=horizontal;strokeWidth=2;rounded=0" parent="1" source="33" target="36" edge="1">
          <mxGeometry x="38" y="135.5" width="100" height="100" as="geometry">
            <mxPoint x="38" y="235.5" as="sourcePoint" />
            <mxPoint x="138" y="135.5" as="targetPoint" />
            <Array as="points">
              <mxPoint x="808" y="625.5" />
            </Array>
          </mxGeometry>
        </mxCell>
        <mxCell id="79" value="" style="edgeStyle=elbowEdgeStyle;elbow=horizontal;strokeWidth=2;rounded=0" parent="1" source="33" target="37" edge="1">
          <mxGeometry x="38" y="135.5" width="100" height="100" as="geometry">
            <mxPoint x="38" y="235.5" as="sourcePoint" />
            <mxPoint x="138" y="135.5" as="targetPoint" />
            <Array as="points">
              <mxPoint x="808" y="665.5" />
            </Array>
          </mxGeometry>
        </mxCell>
        <mxCell id="80" value="" style="edgeStyle=elbowEdgeStyle;elbow=horizontal;strokeWidth=2;rounded=0" parent="1" source="33" target="38" edge="1">
          <mxGeometry x="38" y="135.5" width="100" height="100" as="geometry">
            <mxPoint x="38" y="235.5" as="sourcePoint" />
            <mxPoint x="138" y="135.5" as="targetPoint" />
            <Array as="points">
              <mxPoint x="808" y="705.5" />
            </Array>
          </mxGeometry>
        </mxCell>
        <mxCell id="81" value="" style="edgeStyle=elbowEdgeStyle;elbow=horizontal;strokeWidth=2;rounded=0" parent="1" source="33" target="39" edge="1">
          <mxGeometry x="38" y="135.5" width="100" height="100" as="geometry">
            <mxPoint x="38" y="235.5" as="sourcePoint" />
            <mxPoint x="138" y="135.5" as="targetPoint" />
            <Array as="points">
              <mxPoint x="808" y="755.5" />
            </Array>
          </mxGeometry>
        </mxCell>
        <mxCell id="82" value="" style="edgeStyle=elbowEdgeStyle;elbow=horizontal;strokeWidth=2;rounded=0" parent="1" source="41" target="42" edge="1">
          <mxGeometry x="38" y="135.5" width="100" height="100" as="geometry">
            <mxPoint x="38" y="235.5" as="sourcePoint" />
            <mxPoint x="138" y="135.5" as="targetPoint" />
            <Array as="points">
              <mxPoint x="1018" y="535.5" />
            </Array>
          </mxGeometry>
        </mxCell>
        <mxCell id="83" value="" style="edgeStyle=elbowEdgeStyle;elbow=horizontal;strokeWidth=2;rounded=0" parent="1" source="41" target="43" edge="1">
          <mxGeometry x="38" y="135.5" width="100" height="100" as="geometry">
            <mxPoint x="38" y="235.5" as="sourcePoint" />
            <mxPoint x="138" y="135.5" as="targetPoint" />
            <Array as="points">
              <mxPoint x="1018" y="585.5" />
            </Array>
          </mxGeometry>
        </mxCell>
        <mxCell id="87" value="" style="edgeStyle=elbowEdgeStyle;elbow=horizontal;strokeWidth=2;rounded=0" parent="1" source="48" target="49" edge="1">
          <mxGeometry x="59" y="135.5" width="100" height="100" as="geometry">
            <mxPoint x="59" y="235.5" as="sourcePoint" />
            <mxPoint x="159" y="135.5" as="targetPoint" />
            <Array as="points">
              <mxPoint x="1449" y="535.5" />
            </Array>
          </mxGeometry>
        </mxCell>
        <mxCell id="88" value="" style="edgeStyle=elbowEdgeStyle;elbow=horizontal;strokeWidth=2;rounded=0" parent="1" source="48" target="50" edge="1">
          <mxGeometry x="59" y="135.5" width="100" height="100" as="geometry">
            <mxPoint x="59" y="235.5" as="sourcePoint" />
            <mxPoint x="159" y="135.5" as="targetPoint" />
            <Array as="points">
              <mxPoint x="1449" y="595.5" />
            </Array>
          </mxGeometry>
        </mxCell>
        <mxCell id="89" value="" style="edgeStyle=elbowEdgeStyle;elbow=horizontal;strokeWidth=2;rounded=0" parent="1" source="48" target="51" edge="1">
          <mxGeometry x="59" y="135.5" width="100" height="100" as="geometry">
            <mxPoint x="59" y="235.5" as="sourcePoint" />
            <mxPoint x="159" y="135.5" as="targetPoint" />
            <Array as="points">
              <mxPoint x="1449" y="625.5" />
            </Array>
          </mxGeometry>
        </mxCell>
        <mxCell id="90" value="" style="edgeStyle=elbowEdgeStyle;elbow=horizontal;strokeWidth=2;rounded=0" parent="1" source="52" target="53" edge="1">
          <mxGeometry x="59" y="135.5" width="100" height="100" as="geometry">
            <mxPoint x="59" y="235.5" as="sourcePoint" />
            <mxPoint x="159" y="135.5" as="targetPoint" />
            <Array as="points">
              <mxPoint x="1629" y="535.5" />
            </Array>
          </mxGeometry>
        </mxCell>
        <mxCell id="91" value="" style="edgeStyle=elbowEdgeStyle;elbow=horizontal;strokeWidth=2;rounded=0" parent="1" source="52" target="54" edge="1">
          <mxGeometry x="59" y="135.5" width="100" height="100" as="geometry">
            <mxPoint x="59" y="235.5" as="sourcePoint" />
            <mxPoint x="159" y="135.5" as="targetPoint" />
            <Array as="points">
              <mxPoint x="1629" y="575.5" />
            </Array>
          </mxGeometry>
        </mxCell>
        <mxCell id="92" value="" style="edgeStyle=elbowEdgeStyle;elbow=horizontal;strokeWidth=2;rounded=0" parent="1" source="52" target="55" edge="1">
          <mxGeometry x="59" y="135.5" width="100" height="100" as="geometry">
            <mxPoint x="59" y="235.5" as="sourcePoint" />
            <mxPoint x="159" y="135.5" as="targetPoint" />
            <Array as="points">
              <mxPoint x="1629" y="625.5" />
            </Array>
          </mxGeometry>
        </mxCell>
        <mxCell id="93" value="" style="edgeStyle=elbowEdgeStyle;elbow=horizontal;strokeWidth=2;rounded=0" parent="1" source="52" target="56" edge="1">
          <mxGeometry x="59" y="135.5" width="100" height="100" as="geometry">
            <mxPoint x="59" y="235.5" as="sourcePoint" />
            <mxPoint x="159" y="135.5" as="targetPoint" />
            <Array as="points">
              <mxPoint x="1629" y="675.5" />
            </Array>
          </mxGeometry>
        </mxCell>
        <mxCell id="94" value="" style="edgeStyle=elbowEdgeStyle;elbow=horizontal;strokeWidth=2;rounded=0" parent="1" source="52" target="57" edge="1">
          <mxGeometry x="59" y="135.5" width="100" height="100" as="geometry">
            <mxPoint x="59" y="235.5" as="sourcePoint" />
            <mxPoint x="159" y="135.5" as="targetPoint" />
            <Array as="points">
              <mxPoint x="1629" y="725.5" />
            </Array>
          </mxGeometry>
        </mxCell>
        <mxCell id="95" value="" style="edgeStyle=elbowEdgeStyle;elbow=horizontal;strokeWidth=2;rounded=0" parent="1" source="52" target="58" edge="1">
          <mxGeometry x="59" y="135.5" width="100" height="100" as="geometry">
            <mxPoint x="59" y="235.5" as="sourcePoint" />
            <mxPoint x="159" y="135.5" as="targetPoint" />
            <Array as="points">
              <mxPoint x="1629" y="765.5" />
            </Array>
          </mxGeometry>
        </mxCell>
        <mxCell id="100" value="" style="edgeStyle=elbowEdgeStyle;elbow=vertical;strokeWidth=2;rounded=0" parent="1" source="12" target="25" edge="1">
          <mxGeometry x="38" y="135.5" width="100" height="100" as="geometry">
            <mxPoint x="38" y="235.5" as="sourcePoint" />
            <mxPoint x="138" y="135.5" as="targetPoint" />
          </mxGeometry>
        </mxCell>
        <mxCell id="101" value="" style="edgeStyle=elbowEdgeStyle;elbow=vertical;strokeWidth=2;rounded=0" parent="1" source="12" target="29" edge="1">
          <mxGeometry x="38" y="135.5" width="100" height="100" as="geometry">
            <mxPoint x="38" y="235.5" as="sourcePoint" />
            <mxPoint x="138" y="135.5" as="targetPoint" />
          </mxGeometry>
        </mxCell>
        <mxCell id="102" value="" style="edgeStyle=elbowEdgeStyle;elbow=vertical;strokeWidth=2;rounded=0" parent="1" source="12" target="33" edge="1">
          <mxGeometry x="38" y="135.5" width="100" height="100" as="geometry">
            <mxPoint x="38" y="235.5" as="sourcePoint" />
            <mxPoint x="138" y="135.5" as="targetPoint" />
          </mxGeometry>
        </mxCell>
        <mxCell id="103" value="" style="edgeStyle=elbowEdgeStyle;elbow=vertical;strokeWidth=2;rounded=0" parent="1" source="10" target="41" edge="1">
          <mxGeometry x="38" y="135.5" width="100" height="100" as="geometry">
            <mxPoint x="38" y="235.5" as="sourcePoint" />
            <mxPoint x="138" y="135.5" as="targetPoint" />
          </mxGeometry>
        </mxCell>
        <mxCell id="104" value="" style="edgeStyle=elbowEdgeStyle;elbow=vertical;strokeWidth=2;rounded=0" parent="1" source="4" target="48" edge="1">
          <mxGeometry x="59" y="135.5" width="100" height="100" as="geometry">
            <mxPoint x="59" y="235.5" as="sourcePoint" />
            <mxPoint x="159" y="135.5" as="targetPoint" />
          </mxGeometry>
        </mxCell>
        <mxCell id="105" value="" style="edgeStyle=elbowEdgeStyle;elbow=vertical;strokeWidth=2;rounded=0" parent="1" source="4" edge="1">
          <mxGeometry x="59" y="135.5" width="100" height="100" as="geometry">
            <mxPoint x="59" y="235.5" as="sourcePoint" />
            <mxPoint x="1364.0000000000005" y="455.5" as="targetPoint" />
          </mxGeometry>
        </mxCell>
        <mxCell id="106" value="" style="edgeStyle=elbowEdgeStyle;elbow=vertical;strokeWidth=2;rounded=0" parent="1" source="4" target="52" edge="1">
          <mxGeometry x="59" y="135.5" width="100" height="100" as="geometry">
            <mxPoint x="59" y="235.5" as="sourcePoint" />
            <mxPoint x="159" y="135.5" as="targetPoint" />
          </mxGeometry>
        </mxCell>
        <mxCell id="107" value="" style="edgeStyle=elbowEdgeStyle;elbow=vertical;rounded=0;strokeWidth=2" parent="1" source="14" target="15" edge="1">
          <mxGeometry x="-23" y="135.5" width="100" height="100" as="geometry">
            <mxPoint x="-23" y="235.5" as="sourcePoint" />
            <mxPoint x="77" y="135.5" as="targetPoint" />
          </mxGeometry>
        </mxCell>
        <mxCell id="5XHMu55BE_E5vSNQYdzp-126" value="Hora" style="rounded=1;fillColor=#23445D;gradientColor=none;strokeColor=none;fontColor=#FFFFFF;fontStyle=1;fontFamily=Tahoma;fontSize=13;" vertex="1" parent="1">
          <mxGeometry x="220" y="781.5" width="120" height="24.5" as="geometry" />
        </mxCell>
        <mxCell id="5XHMu55BE_E5vSNQYdzp-127" value="Entero con &#xa;decimales" style="rounded=1;fillColor=#23445D;gradientColor=none;strokeColor=none;fontColor=#FFFFFF;fontStyle=1;fontFamily=Tahoma;fontSize=13;" vertex="1" parent="1">
          <mxGeometry x="220" y="815.5" width="120" height="44.5" as="geometry" />
        </mxCell>
        <mxCell id="5XHMu55BE_E5vSNQYdzp-131" value="" style="edgeStyle=elbowEdgeStyle;elbow=horizontal;strokeWidth=2;rounded=0;" edge="1" parent="1">
          <mxGeometry x="-28" y="93.87" width="100" height="100" as="geometry">
            <mxPoint x="197" y="409.18" as="sourcePoint" />
            <mxPoint x="220" y="750" as="targetPoint" />
            <Array as="points">
              <mxPoint x="197" y="768.3699999999999" />
              <mxPoint x="215" y="808.3699999999999" />
              <mxPoint x="197" y="623.8699999999999" />
            </Array>
          </mxGeometry>
        </mxCell>
        <mxCell id="5XHMu55BE_E5vSNQYdzp-132" value="" style="edgeStyle=elbowEdgeStyle;elbow=horizontal;strokeWidth=2;rounded=0;entryX=0;entryY=0.5;entryDx=0;entryDy=0;" edge="1" parent="1" target="5XHMu55BE_E5vSNQYdzp-127">
          <mxGeometry x="-28" y="176.94" width="100" height="100" as="geometry">
            <mxPoint x="197" y="456.94000000000005" as="sourcePoint" />
            <mxPoint x="232" y="833.065" as="targetPoint" />
            <Array as="points">
              <mxPoint x="197" y="851.4399999999999" />
              <mxPoint x="215" y="891.4399999999999" />
              <mxPoint x="197" y="706.9399999999999" />
            </Array>
          </mxGeometry>
        </mxCell>
        <mxCell id="5XHMu55BE_E5vSNQYdzp-135" value=" ORACLE, PostgeSQL, &#xa;MySQL y SQLServer" style="rounded=1;fillColor=#23445D;gradientColor=none;strokeColor=none;fontColor=#FFFFFF;fontStyle=1;fontFamily=Tahoma;fontSize=13;" vertex="1" parent="1">
          <mxGeometry x="21.5" y="665.5" width="157" height="60" as="geometry" />
        </mxCell>
        <mxCell id="5XHMu55BE_E5vSNQYdzp-139" value="" style="fillColor=#D9EAD3;strokeColor=none" vertex="1" parent="1">
          <mxGeometry x="355" y="445.5" width="85" height="424.5" as="geometry" />
        </mxCell>
        <mxCell id="5XHMu55BE_E5vSNQYdzp-141" value="VARCHAR2" style="rounded=1;fillColor=#23445D;gradientColor=none;strokeColor=none;fontColor=#FFFFFF;fontStyle=1;fontFamily=Tahoma;fontSize=13;" vertex="1" parent="1">
          <mxGeometry x="360" y="455.5" width="80" height="34.5" as="geometry" />
        </mxCell>
        <mxCell id="5XHMu55BE_E5vSNQYdzp-142" value="TEXT" style="rounded=1;fillColor=#23445D;gradientColor=none;strokeColor=none;fontColor=#FFFFFF;fontStyle=1;fontFamily=Tahoma;fontSize=13;" vertex="1" parent="1">
          <mxGeometry x="360" y="515.5" width="70" height="29" as="geometry" />
        </mxCell>
        <mxCell id="5XHMu55BE_E5vSNQYdzp-143" value="SMALLINT" style="rounded=1;fillColor=#23445D;gradientColor=none;strokeColor=none;fontColor=#FFFFFF;fontStyle=1;fontFamily=Tahoma;fontSize=13;" vertex="1" parent="1">
          <mxGeometry x="362.5" y="575.5" width="70" height="30" as="geometry" />
        </mxCell>
        <mxCell id="5XHMu55BE_E5vSNQYdzp-144" value="INTEGER" style="rounded=1;fillColor=#23445D;gradientColor=none;strokeColor=none;fontColor=#FFFFFF;fontStyle=1;fontFamily=Tahoma;fontSize=12;" vertex="1" parent="1">
          <mxGeometry x="360" y="630" width="70" height="20" as="geometry" />
        </mxCell>
        <mxCell id="5XHMu55BE_E5vSNQYdzp-145" value="DATE" style="rounded=1;fillColor=#23445D;gradientColor=none;strokeColor=none;fontColor=#FFFFFF;fontStyle=1;fontFamily=Tahoma;fontSize=12;" vertex="1" parent="1">
          <mxGeometry x="360" y="680.5" width="70" height="30" as="geometry" />
        </mxCell>
        <mxCell id="5XHMu55BE_E5vSNQYdzp-146" value="DATE" style="rounded=1;fillColor=#23445D;gradientColor=none;strokeColor=none;fontColor=#FFFFFF;fontStyle=1;fontFamily=Tahoma;fontSize=12;" vertex="1" parent="1">
          <mxGeometry x="360" y="731.5" width="70" height="30" as="geometry" />
        </mxCell>
        <mxCell id="5XHMu55BE_E5vSNQYdzp-147" value="DATE" style="rounded=1;fillColor=#23445D;gradientColor=none;strokeColor=none;fontColor=#FFFFFF;fontStyle=1;fontFamily=Tahoma;fontSize=12;" vertex="1" parent="1">
          <mxGeometry x="360" y="776" width="70" height="30" as="geometry" />
        </mxCell>
        <mxCell id="5XHMu55BE_E5vSNQYdzp-148" value="FLOAT" style="rounded=1;fillColor=#23445D;gradientColor=none;strokeColor=none;fontColor=#FFFFFF;fontStyle=1;fontFamily=Tahoma;fontSize=12;" vertex="1" parent="1">
          <mxGeometry x="360" y="822.75" width="70" height="30" as="geometry" />
        </mxCell>
        <mxCell id="5XHMu55BE_E5vSNQYdzp-149" value="VARCHAR2" style="rounded=1;fillColor=#23445D;gradientColor=none;strokeColor=none;fontColor=#FFFFFF;fontStyle=1;fontFamily=Tahoma;fontSize=12;" vertex="1" parent="1">
          <mxGeometry x="360" y="456.5" width="80" height="34.5" as="geometry" />
        </mxCell>
        <mxCell id="5XHMu55BE_E5vSNQYdzp-150" value="TEXT" style="rounded=1;fillColor=#23445D;gradientColor=none;strokeColor=none;fontColor=#FFFFFF;fontStyle=1;fontFamily=Tahoma;fontSize=12;" vertex="1" parent="1">
          <mxGeometry x="360" y="516.5" width="70" height="29" as="geometry" />
        </mxCell>
      </root>
    </mxGraphModel>
  </diagram>
</mxfile>
